<svg width="107" height="196" viewBox="0 0 107 196" fill="none" xmlns="http://www.w3.org/2000/svg">
<path d="M24.8021 72.6331L97.6851 5L100.479 5.03502L59.9191 66.563L87.8372 76.7717L46.0479 119.814L74.3171 130.022L2.63378 195H0L38.1466 136.644L10.5797 126.16L51.4911 83.1177L24.8021 72.6331Z" fill="#FBFBFB"/>
<path d="M31.3225 70.6331L105.244 0L107 3.03501L66.4396 64.563L94.3577 74.7717L52.5684 117.814L80.8376 128.022L5.33593 195.345H2.70215L44.667 134.644L17.1001 124.16L58.0115 81.1177L31.3225 70.6331Z" fill="#2D2A2B"/>
<path d="M60.6 74.4071L56.1518 78.5494C55.7702 78.9047 55.1798 78.9072 54.7952 78.5553L50.5821 74.6996C49.9144 74.0886 48.8432 74.6081 48.9096 75.5107L49.1929 79.3599C49.2463 80.0851 48.5322 80.623 47.8499 80.3716L37.5816 76.5879C36.7327 76.2751 35.9379 77.1605 36.3401 77.9708L40.1106 85.5677C40.4625 86.2768 39.89 87.0943 39.1033 87.006L28.69 85.8377C27.8543 85.7439 27.2831 86.6608 27.7356 87.3696L32.9807 95.5847C33.3427 96.1517 33.053 96.9071 32.4047 97.0866L25.6871 98.9469C24.7828 99.1974 24.6902 100.443 25.5475 100.824L34.1579 104.655C34.7177 104.904 34.9239 105.593 34.593 106.108L29.391 114.214C28.8987 114.981 29.6052 115.953 30.4866 115.721L37.7706 113.808C38.4799 113.622 39.1419 114.237 39.0077 114.958L37.8015 121.441C37.6504 122.253 38.4928 122.887 39.2315 122.518L46.5751 118.85C47.0102 118.632 47.5387 118.76 47.8272 119.151L51.4303 124.044C51.857 124.623 52.7376 124.576 53.0996 123.954L55.6891 119.507C56.0027 118.969 56.7272 118.845 57.2016 119.249L64.5272 125.489C65.1962 126.059 66.2222 125.55 66.1741 124.673L65.8043 117.92C65.7646 117.195 66.487 116.671 67.1643 116.933L76.6789 120.622C77.533 120.953 78.3458 120.057 77.9331 119.239L74.6699 112.773C74.3183 112.076 74.8646 111.263 75.6425 111.325L83.5022 111.955C84.4288 112.029 84.9465 110.91 84.2898 110.252L79.0445 104.997C78.5293 104.481 78.722 103.605 79.4063 103.352L86.9358 100.576C87.7414 100.279 87.8227 99.1716 87.0693 98.76L77.8236 93.7096C77.3649 93.459 77.1766 92.8974 77.3914 92.4209L81.3577 83.6256C81.7085 82.8478 80.9867 82.0163 80.1673 82.2542L70.2205 85.1422C69.4978 85.3521 68.811 84.7185 68.962 83.9813L70.4452 76.7381C70.6278 75.8467 69.6217 75.1945 68.8825 75.725L64.1298 79.136C63.4979 79.5895 62.6129 79.1797 62.55 78.4045L62.2782 75.058C62.2106 74.225 61.2116 73.8376 60.6 74.4071Z" fill="#FBFBFB" stroke="#585456"/>
<path d="M42.124 113.324C42.436 109.964 42.724 106.664 42.988 103.424C43.108 102.08 43.216 100.664 43.312 99.176C43.432 97.688 43.528 96.224 43.6 94.784C43.696 93.32 43.768 91.916 43.816 90.572C43.864 89.204 43.9 87.956 43.924 86.828C44.5 86.828 45.112 86.816 45.76 86.792C46.432 86.768 47.032 86.744 47.56 86.72C48.112 86.696 48.58 86.672 48.964 86.648C49.348 86.6 49.54 86.576 49.54 86.576C49.276 89.36 49.048 91.652 48.856 93.452C48.664 95.228 48.508 96.68 48.388 97.808C48.292 98.912 48.196 99.98 48.1 101.012C48.028 102.044 47.944 103.004 47.848 103.892C47.752 104.78 47.668 105.536 47.596 106.16H48.244L52.276 87.008C52.924 86.984 53.584 86.948 54.256 86.9C54.856 86.852 55.48 86.816 56.128 86.792C56.8 86.768 57.412 86.72 57.964 86.648C57.628 87.704 57.28 88.868 56.92 90.14C56.584 91.412 56.224 92.732 55.84 94.1C55.48 95.468 55.12 96.86 54.76 98.276C54.424 99.692 54.088 101.06 53.752 102.38C52.984 105.476 52.216 108.656 51.448 111.92L42.124 113.324ZM69.5886 104.108C69.5886 105.452 69.3246 106.676 68.7966 107.78C68.2926 108.86 67.5966 109.796 66.7086 110.588C65.8446 111.38 64.8126 111.992 63.6126 112.424C62.4366 112.856 61.1646 113.072 59.7966 113.072C58.8366 113.072 57.8766 112.82 56.9166 112.316C55.9566 111.788 55.0326 110.96 54.1446 109.832L56.8086 104.612C56.9766 104.924 57.2286 105.248 57.5646 105.584C57.9006 105.896 58.2726 106.172 58.6806 106.412C59.1126 106.652 59.5326 106.856 59.9406 107.024C60.3726 107.168 60.7566 107.24 61.0926 107.24C61.3806 107.24 61.6806 107.192 61.9926 107.096C62.3046 107 62.5926 106.856 62.8566 106.664C63.1206 106.472 63.3246 106.256 63.4686 106.016C63.6366 105.752 63.7206 105.452 63.7206 105.116C63.7206 104.54 63.5286 104.012 63.1446 103.532C62.7846 103.028 62.3286 102.56 61.7766 102.128C61.2246 101.672 60.6246 101.216 59.9766 100.76C59.3286 100.304 58.7286 99.824 58.1766 99.32C57.6486 98.816 57.1926 98.252 56.8086 97.628C56.4246 97.004 56.2326 96.308 56.2326 95.54C56.2326 94.292 56.6046 93.128 57.3486 92.048C58.0926 90.968 59.0166 90.044 60.1206 89.276C61.2486 88.484 62.4726 87.86 63.7926 87.404C65.1126 86.948 66.3606 86.72 67.5366 86.72C68.1846 86.72 68.7966 86.804 69.3726 86.972C69.9486 87.116 70.4406 87.368 70.8486 87.728C71.2806 88.064 71.6166 88.496 71.8566 89.024C72.1206 89.552 72.2526 90.212 72.2526 91.004C72.2526 91.34 72.2166 91.676 72.1446 92.012C72.0966 92.348 72.0486 92.708 72.0006 93.092L66.7806 94.604C66.8286 94.412 66.8646 94.22 66.8886 94.028C66.9366 93.836 66.9606 93.644 66.9606 93.452C66.9606 92.732 66.8286 92.216 66.5646 91.904C66.3246 91.568 66.0006 91.4 65.5926 91.4C65.4006 91.4 65.1606 91.472 64.8726 91.616C64.6086 91.76 64.3326 91.952 64.0446 92.192C63.7806 92.408 63.5526 92.672 63.3606 92.984C63.1686 93.296 63.0726 93.632 63.0726 93.992C63.0726 94.568 63.2286 95.048 63.5406 95.432C63.8766 95.816 64.2846 96.176 64.7646 96.512C65.2446 96.848 65.7606 97.196 66.3126 97.556C66.8886 97.892 67.4166 98.336 67.8966 98.888C68.3766 99.44 68.7726 100.136 69.0846 100.976C69.4206 101.792 69.5886 102.836 69.5886 104.108Z" fill="#2D2A2B"/>
</svg>
