<svg width="222" height="326" viewBox="0 0 222 326" fill="none" xmlns="http://www.w3.org/2000/svg">
<path d="M63.1921 276.415C63.1921 276.415 73.9467 183.652 82.9538 171.284C91.9608 158.781 134.845 166.31 136.862 168.595C154.338 188.223 170.47 275.877 170.47 275.877C149.633 288.783 130.409 282.599 112.529 276.549C94.9183 270.499 78.6519 264.45 63.0576 276.549L63.1921 276.415Z" fill="#76CBC7"/>
<path d="M64.9365 276.415C64.9365 276.415 80.2619 184.729 89.0001 172.226C97.7383 159.723 131.078 168.462 133.094 170.881C150.033 190.509 168.585 277.491 168.585 277.491C148.42 290.397 129.868 283.809 112.66 277.222C95.7218 270.769 79.9931 264.316 64.9365 276.415Z" fill="#4B8983"/>
<path d="M135.383 171.285C135.383 171.285 170.739 191.585 198.836 169.806L203.272 174.646C203.272 174.646 181.763 202.475 135.518 187.552L135.383 171.285Z" fill="#564047"/>
<path d="M198.967 169.939C197.085 172.225 176.92 195.348 135.515 183.921V187.551C181.76 202.473 203.269 174.645 203.269 174.645L198.967 169.939Z" fill="#47363C"/>
<path d="M182.031 168.866L194.399 196.963L214.832 164.833L211.606 160.934L182.031 168.866Z" fill="#72AFAD"/>
<path d="M187.946 182.174C193.995 180.292 200.179 176.393 205.019 170.478C207.573 167.521 209.455 164.294 210.934 161.068L182.031 168.865L187.811 182.174H187.946Z" fill="#76CBC7"/>
<path d="M209.994 162.546C208.247 159.051 209.322 150.85 213.624 149.909C217.791 148.968 220.883 152.867 221.421 155.959C221.824 159.051 214.296 170.881 209.994 162.681V162.546Z" fill="#564047"/>
<path d="M88.5997 241.864C92.9016 249.661 135.248 246.3 140.894 240.923C146.541 235.68 152.724 176.93 127.989 168.73C120.192 166.175 90.0785 165.1 87.9276 171.015C85.7766 176.93 81.4748 228.958 88.5997 241.73V241.864Z" fill="#564047"/>
<path d="M63.7278 313.386C58.8882 291.472 62.6524 271.172 66.4165 263.106C70.1806 255.04 87.7914 237.428 87.2537 225.732L139.548 224.119C139.548 233.261 161.461 243.881 172.619 262.03C183.777 280.179 182.298 310.697 182.298 310.697H177.996C177.996 310.697 166.838 268.483 158.235 263.106C149.631 257.728 136.725 254.099 117.636 256.653C97.8739 259.342 66.8198 259.342 67.8953 312.713L63.5934 313.251L63.7278 313.386Z" fill="#564047"/>
<path d="M154.471 259.879C145.868 254.501 132.962 250.871 113.873 253.426C94.1109 256.115 63.0568 256.115 64.1323 309.486L62.9224 309.621C63.1912 310.831 63.3257 312.041 63.5945 313.251L67.8964 312.713C66.8209 259.341 97.875 259.341 117.637 256.652C135.92 254.232 148.556 257.459 157.16 262.433C156.219 261.223 155.412 260.417 154.606 259.879H154.471Z" fill="#47363C"/>
<path d="M172.62 262.031C164.823 249.259 151.648 240.252 144.523 232.858C141.431 229.631 140.221 229.093 143.179 231.916C150.573 238.907 161.865 247.377 168.856 258.804C180.014 276.953 178.535 307.47 178.535 307.47H177.056C177.594 309.487 177.997 310.697 177.997 310.697H182.299C182.299 310.697 183.912 280.18 172.62 262.031Z" fill="#47363C"/>
<path d="M81.8765 237.697L111.049 259.072L125.164 257.863L150.975 237.159L146.001 228.421L83.6241 230.841L81.8765 237.697Z" fill="#76CBC7"/>
<path d="M122.61 244.285C112.393 247.242 102.58 248.184 94.6479 247.108L110.914 259.073L125.03 257.863L150.841 237.025L147.615 231.379C141.565 236.487 132.827 241.193 122.476 244.285H122.61Z" fill="#61B7B1"/>
<path d="M93.7078 169.403C93.7078 169.403 56.873 189.569 28.3731 167.521L23.668 172.361C23.668 172.361 45.0429 200.458 93.0356 185.939L93.7078 169.538V169.403Z" fill="#564047"/>
<path d="M45.043 281.254C45.043 281.254 63.1915 300.479 62.116 315.401C61.8471 318.628 48.8071 325.619 48.8071 325.619H71.7952C71.7952 325.619 67.4933 289.858 81.8777 283.405L45.043 281.254Z" fill="#76CBC7"/>
<path d="M81.8781 283.405L63.7296 282.329C66.6871 287.438 68.4347 293.891 68.4347 300.882C68.4347 311.099 64.6706 319.972 59.0244 325.618H71.6611C71.6611 325.618 67.3593 289.858 81.7436 283.405H81.8781Z" fill="#72AFAD"/>
<path d="M195.34 284.481C195.34 284.481 180.821 302.361 183.376 316.209C183.913 319.166 196.685 325.619 196.685 325.619H175.444C175.444 325.619 175.713 292.413 161.866 286.498L195.34 284.481Z" fill="#76CBC7"/>
<path d="M196.818 325.619C196.818 325.619 184.047 319.166 183.51 316.209C180.955 302.361 195.474 284.481 195.474 284.481L180.552 285.422C181.359 289.455 181.896 293.892 181.896 298.597C181.896 309.352 179.477 319.032 175.712 325.485V325.754H196.953L196.818 325.619Z" fill="#72AFAD"/>
<path d="M41.5469 166.177L24.8772 192.93L7.40088 158.917L11.4339 155.422L41.5469 166.177Z" fill="#72AFAD"/>
<path d="M11.4352 155.421L7.53662 158.916L8.34322 160.53C13.1828 164.159 19.6356 167.386 26.895 169.402C30.7936 170.478 34.5577 171.285 38.1874 171.688L41.6827 166.042L11.4352 155.286V155.421Z" fill="#76CBC7"/>
<path d="M140.625 169.134C140.625 165.235 128.526 162.412 113.604 162.681C98.6815 162.95 86.5825 166.311 86.5825 170.21C86.5825 174.108 98.6815 176.931 113.604 176.663C128.526 176.394 140.625 173.033 140.625 169.134Z" fill="#76CBC7"/>
<path d="M119.247 149.237L104.191 150.043L105.132 168.058C108.358 171.15 117.769 171.285 120.189 167.251L119.247 149.237Z" fill="#F8BE84"/>
<path d="M100.7 15.7405L104.867 2.96893C105.405 1.22124 107.018 0.0112971 108.766 0.0112971C110.513 -0.123141 112.261 0.952362 112.933 2.70005L118.983 16.6816L100.7 15.875V15.7405Z" fill="#5F474F"/>
<path d="M125.566 17.488L132.153 5.79192C133.094 4.17867 134.842 3.37204 136.589 3.64092C138.337 3.90979 139.816 5.25417 140.219 7.00186L143.446 21.79L125.566 17.488Z" fill="#5F474F"/>
<path d="M79.1892 25.553L77.4416 12.2436C77.1727 10.4959 78.1137 8.74825 79.7269 7.80719C81.3402 7.00056 83.2222 7.135 84.701 8.34494L96.1279 18.2933L79.1892 25.553Z" fill="#5F474F"/>
<path d="M92.2303 231.915L86.1807 231.781V234.873L92.2303 235.008V231.915Z" fill="#FBF282"/>
<path d="M102.174 231.512L96.125 231.781L96.2594 234.873L102.309 234.604L102.174 231.512Z" fill="#FBF282"/>
<path d="M112.661 230.975L106.611 231.243L106.746 234.336L112.795 234.067L112.661 230.975Z" fill="#FBF282"/>
<path d="M123.283 230.437L117.233 230.706L117.368 233.798L123.417 233.529L123.283 230.437Z" fill="#FBF282"/>
<path d="M133.904 230.168L127.855 230.572L127.989 233.664L134.039 233.261L133.904 230.168Z" fill="#FBF282"/>
<path d="M144.925 229.362L139.01 229.766L139.145 232.858L145.194 232.454L144.925 229.362Z" fill="#FBF282"/>
<path d="M121.669 183.115L108.495 193.736L116.695 197.231L105.94 206.104L113.469 209.6L102.176 220.489L120.997 209.6L111.721 205.701L130.004 195.887L116.426 192.257L121.669 183.115Z" fill="#FBF282"/>
<path d="M146.268 175.99C144.117 175.318 142.235 174.512 140.622 173.839C142.235 174.512 144.117 175.318 146.268 175.99Z" fill="#B3A6A1"/>
<path d="M140.625 173.839C139.415 173.302 138.34 172.898 137.533 172.495C138.071 172.226 138.609 171.823 139.146 171.554C139.684 172.226 140.088 173.033 140.625 173.839Z" fill="#59887F"/>
<path d="M140.491 181.099C139.147 178.142 137.399 175.587 135.248 173.436C136.055 173.168 136.861 172.764 137.533 172.495C138.34 172.899 139.415 173.436 140.625 173.84C142.239 174.512 144.121 175.319 146.272 175.991C144.793 177.873 142.911 179.621 140.491 181.099Z" fill="#423436"/>
<path d="M75.2876 175.99C77.4385 175.452 79.455 174.914 81.2027 174.377C79.3206 174.914 77.3041 175.452 75.2876 175.99Z" fill="#B3A6A1"/>
<path d="M81.2028 174.377C81.7405 173.033 82.2783 171.957 82.816 171.285C84.6981 168.731 88.0589 167.117 92.0919 166.042C88.4622 167.252 86.3113 168.865 86.3113 170.478C86.3113 171.151 86.7146 171.823 87.3867 172.361C85.6391 173.033 83.4882 173.839 81.0684 174.646L81.2028 174.377Z" fill="#59887F"/>
<path d="M112.933 187.82C106.346 187.82 99.4898 186.879 93.1714 184.997L93.5747 174.78C98.1454 175.99 104.464 176.662 111.589 176.662C112.261 176.662 112.933 176.662 113.605 176.662C122.478 176.527 130.409 175.183 135.383 173.435C137.4 175.586 139.148 178.141 140.626 181.098C135.115 184.594 127.452 186.879 119.117 187.551L121.671 183.115L115.891 187.82C114.95 187.82 114.009 187.82 112.933 187.82Z" fill="#423436"/>
<path d="M93.1672 184.997C86.58 183.115 80.5305 180.023 75.2876 175.99C77.4385 175.452 79.455 174.915 81.2026 174.377C83.6224 173.57 85.7734 172.898 87.521 172.091C88.7309 173.032 90.7474 173.973 93.436 174.646L93.0327 184.863L93.1672 184.997Z" fill="#423436"/>
<path d="M111.587 176.663C104.462 176.663 98.1438 175.991 93.573 174.781C90.8844 174.109 88.8679 173.168 87.658 172.227C86.9858 171.554 86.5825 171.017 86.5825 170.345C86.5825 168.731 88.7335 167.252 92.3631 165.908C92.3631 165.908 92.3631 165.908 92.4976 165.908C95.724 164.833 100.026 163.892 105 163.354L105.269 168.059C106.748 169.538 109.705 170.345 112.663 170.345C115.889 170.345 119.115 169.403 120.46 167.252L120.191 162.95C131.752 163.488 140.356 165.908 140.894 169C140.894 169 140.894 169 140.894 169.135C140.894 169.941 140.356 170.613 139.415 171.42C139.011 171.689 138.474 172.092 137.802 172.361C137.129 172.764 136.457 173.033 135.516 173.302C130.542 175.05 122.745 176.394 113.738 176.529C113.066 176.529 112.394 176.529 111.722 176.529L111.587 176.663Z" fill="#59887F"/>
<path d="M112.53 170.21C109.572 170.21 106.614 169.403 105.136 167.924L104.867 163.219L104.732 160.665C106.48 160.799 108.228 160.799 109.975 160.799C110.513 160.799 111.051 160.799 111.589 160.799C114.546 160.799 117.235 160.53 119.923 160.261L120.058 162.681L120.327 166.983C118.982 169.134 115.89 170.075 112.53 170.075V170.21Z" fill="#B07E59"/>
<path d="M115.888 187.821L121.668 183.115L119.114 187.552C118.039 187.686 116.963 187.686 115.888 187.821Z" fill="#B59F55"/>
<path d="M56.4675 158.11C47.7294 139.289 18.9606 59.8358 70.9863 31.335H161.191C161.191 31.335 216.847 93.7142 161.998 158.11H56.4675Z" fill="#564047"/>
<path d="M61.3092 158.11C53.3776 139.289 27.0287 59.8358 74.6181 31.335H157.16C157.16 31.335 208.11 93.7142 157.967 158.11H61.4436H61.3092Z" fill="#47373C"/>
<path d="M43.8328 91.8315C46.2526 128.399 67.8964 161.739 111.587 160.933C164.151 159.991 179.745 120.332 180.552 92.2348C181.224 66.8261 164.957 16.8152 111.587 17.3529C78.5166 17.7562 40.8752 45.8538 43.8328 91.6971V91.8315Z" fill="#F8BE84"/>
<path d="M177.595 114.821H47.4634L52.9751 126.651H171.814L177.595 114.821Z" fill="#EEA475"/>
<path fill-rule="evenodd" clip-rule="evenodd" d="M176.651 114.821C179.071 107.024 180.147 99.2263 180.415 92.2355C181.088 69.9188 168.451 28.3776 129.196 19.2358C167.644 28.2431 180.55 67.9023 180.55 90.6223C180.55 91.16 180.55 91.6978 180.55 92.2355C180.281 99.3607 179.206 107.158 176.786 114.821H176.651Z" fill="url(#paint0_linear)"/>
<path fill-rule="evenodd" clip-rule="evenodd" d="M171.811 126.651C172.349 125.576 172.886 124.635 173.29 123.559L173.424 123.156L173.693 122.618C173.827 122.349 173.962 122.08 173.962 121.946C174.903 119.66 175.844 117.24 176.516 114.821C175.71 117.24 174.903 119.526 173.962 121.946C173.827 122.215 173.693 122.484 173.693 122.618L173.424 123.156L173.29 123.559C172.752 124.635 172.349 125.576 171.811 126.651Z" fill="url(#paint1_linear)"/>
<path d="M46.2507 123.693H178.399C182.163 113.745 186.062 103.528 186.33 94.5205C187.137 66.8263 169.392 12.379 111.451 13.0511C75.5572 13.4545 34.6895 44.1063 37.9159 94.1172C38.588 104.469 42.621 114.552 46.2507 123.828V123.693Z" fill="#564047"/>
<path d="M40.3388 106.754C58.4873 72.8753 95.0531 49.752 137.265 49.752C151.918 49.752 165.9 52.5752 178.671 57.6838C168.723 34.5605 148.154 12.6472 111.32 13.0505C75.4259 13.4538 34.5581 44.1056 37.7845 94.1165C38.0534 98.4185 38.9944 102.72 40.0699 106.888L40.3388 106.754Z" fill="#5F474F"/>
<path d="M43.2933 96.6723C42.4867 47.8713 79.4559 18.5639 113.468 15.7407H113.333C79.7248 14.5308 39.9325 41.4183 40.7391 88.3371C40.8735 92.3703 41.4113 96.4034 42.3523 100.302C42.6212 99.7643 43.0245 99.2266 43.2933 98.8233C43.2933 98.1511 43.1589 97.3445 43.1589 96.6723H43.2933Z" fill="#6E555F"/>
<path d="M41.2779 101.377C35.2284 96.9402 27.8346 108.771 31.8676 113.611C35.9006 118.45 45.7142 122.215 45.7142 122.215L41.2779 101.377Z" fill="#F8BE84"/>
<path d="M182.972 101.377C188.753 96.9402 195.743 108.771 191.845 113.611C187.946 118.45 178.67 122.215 178.67 122.215L182.972 101.377Z" fill="#F8BE84"/>
<path d="M183.776 103.796C188.078 100.435 193.32 109.308 190.363 112.938C187.54 116.568 180.549 119.391 180.549 119.391L183.776 103.796Z" fill="#EEA472"/>
<path d="M182.3 107.427C184.854 105.411 187.946 110.654 186.199 112.805C184.451 114.956 180.418 116.569 180.418 116.569L182.3 107.427Z" fill="#F8BE84"/>
<path d="M40.0688 104.738C35.9014 101.915 30.6585 108.905 33.3471 111.863C36.0358 114.821 42.7575 117.241 42.7575 117.241L40.0688 104.603V104.738Z" fill="#EEA472"/>
<path d="M41.4129 107.561C38.9931 105.948 35.9011 109.981 37.5143 111.728C39.1275 113.476 43.0261 114.955 43.0261 114.955L41.4129 107.561Z" fill="#F8BE84"/>
<path d="M196.147 284.348L161.329 285.961V289.725L196.147 287.978V284.348Z" fill="#FBF282"/>
<path d="M82.0107 282.869L43.6973 280.852V284.482L82.0107 286.633V282.869Z" fill="#FBF282"/>
<path d="M95.3208 135.121H126.644C126.644 135.121 113.738 163.084 95.3208 135.121Z" fill="#4C3C32"/>
<path d="M98.6812 136.063L103.386 143.188H118.577L123.82 136.063H98.6812Z" fill="#FEEDDF"/>
<path d="M119.518 125.307C119.518 122.887 116.292 120.87 112.258 120.87C108.225 120.87 104.999 122.887 104.999 125.307C104.999 127.727 108.225 129.743 112.258 129.743C116.292 129.743 119.518 127.727 119.518 125.307Z" fill="#EFA766"/>
<path d="M118.444 124.232C118.444 122.35 115.889 120.737 112.663 120.737C109.437 120.737 106.882 122.35 106.882 124.232C106.882 126.114 109.437 127.728 112.663 127.728C115.889 127.728 118.444 126.114 118.444 124.232Z" fill="#F8BE84"/>
<path d="M71.2573 117.241C71.2573 117.241 84.7007 112.267 99.6229 115.359C99.6229 115.359 96.262 93.8486 83.0875 95.4618C70.0474 97.0751 70.0474 112.267 71.2573 117.241Z" fill="#FEEDDF"/>
<path d="M150.437 117.241C150.437 117.241 137.935 112.267 123.954 115.359C123.954 115.359 127.18 93.8486 139.413 95.4618C151.647 97.0751 151.647 112.267 150.437 117.241Z" fill="#FEEDDF"/>
<path d="M136.995 85.3783C133.769 88.3359 152.724 93.7134 154.606 92.6379C156.354 91.5624 144.12 78.7908 136.995 85.3783Z" fill="#6E555F"/>
<path d="M89.942 84.4375C91.1519 80.2699 72.1968 85.7819 71.2557 87.5295C70.3147 89.4117 87.3878 93.8481 89.942 84.4375Z" fill="#6E555F"/>
<path d="M140.088 107.964C140.088 104.872 138.071 102.318 135.652 102.318C133.232 102.318 131.215 104.872 131.215 107.964C131.215 111.056 133.232 113.61 135.652 113.61C138.071 113.61 140.088 111.056 140.088 107.964Z" fill="#89ACC2"/>
<path d="M137.799 106.485C137.799 105.409 137.127 104.603 136.321 104.603C135.514 104.603 134.842 105.409 134.842 106.485C134.842 107.56 135.514 108.367 136.321 108.367C137.127 108.367 137.799 107.56 137.799 106.485Z" fill="#C1DFEE"/>
<path d="M91.02 107.964C91.02 104.872 89.0035 102.318 86.5838 102.318C84.164 102.318 82.1475 104.872 82.1475 107.964C82.1475 111.056 84.164 113.61 86.5838 113.61C89.0035 113.61 91.02 111.056 91.02 107.964Z" fill="#89ACC2"/>
<path d="M89.2695 106.485C89.2695 105.409 88.5974 104.603 87.7908 104.603C86.9842 104.603 86.312 105.409 86.312 106.485C86.312 107.56 86.9842 108.367 87.7908 108.367C88.5974 108.367 89.2695 107.56 89.2695 106.485Z" fill="#C1DFEE"/>
<path d="M212.547 153.674C211.472 151.791 209.724 150.582 208.649 151.119C207.708 151.657 207.708 153.539 208.783 155.556C209.859 157.438 211.606 158.648 212.682 158.11C213.623 157.572 213.623 155.69 212.547 153.674Z" fill="#F8BE84"/>
<path d="M210.935 157.706C210.801 155.69 209.86 150.985 208.65 151.119C206.768 151.253 205.692 159.051 210.263 161.471C211.204 162.009 211.204 159.723 210.935 157.572V157.706Z" fill="#F8BE84"/>
<path d="M214.83 148.429C213.083 148.295 211.738 148.967 211.738 149.908C211.738 150.849 213.217 151.79 214.83 151.925C216.578 152.059 217.922 151.387 217.922 150.446C217.922 149.505 216.443 148.564 214.83 148.429Z" fill="#F8BE84"/>
<path d="M214.967 150.582C214.698 149.372 213.623 148.565 212.682 148.699C211.741 148.968 211.337 150.178 211.606 151.388C211.875 152.598 212.951 153.405 213.892 153.27C214.833 153.001 215.236 151.791 214.967 150.582Z" fill="#F8BE84"/>
<path d="M217.925 156.094C217.656 154.884 216.581 154.077 215.64 154.212C214.699 154.481 214.295 155.69 214.564 156.9C214.833 158.11 215.909 158.917 216.85 158.783C217.791 158.514 218.194 157.304 217.925 156.094Z" fill="#F8BE84"/>
<path d="M216.846 152.598C216.577 151.388 215.502 150.582 214.561 150.716C213.62 150.985 213.216 152.195 213.485 153.405C213.754 154.615 214.829 155.422 215.77 155.287C216.711 155.018 217.115 153.808 216.846 152.598Z" fill="#F8BE84"/>
<path d="M217.387 151.118C215.774 151.118 214.429 151.79 214.429 152.731C214.429 153.672 215.774 154.479 217.387 154.479C219 154.479 220.344 153.807 220.344 152.866C220.344 151.925 219 151.118 217.387 151.118Z" fill="#F8BE84"/>
<path d="M218.057 154.076C216.175 154.076 214.696 154.883 214.696 155.824C214.696 156.765 216.175 157.572 218.057 157.572C219.939 157.572 221.418 156.765 221.418 155.824C221.418 154.883 219.939 154.076 218.057 154.076Z" fill="#F8BE84"/>
<path d="M13.8533 155.958C15.1977 152.194 12.3746 144.262 7.66941 144.128C2.96425 143.993 0.141159 148.43 0.275592 151.522C0.275592 154.614 10.7614 164.697 13.8533 155.824V155.958Z" fill="#564047"/>
<path d="M9.4189 147.758C10.3599 145.607 11.9731 144.129 13.183 144.532C14.3929 144.801 14.6618 146.817 13.7207 148.834C12.9142 150.985 11.1665 152.464 9.95663 152.06C8.74673 151.792 8.47787 149.775 9.4189 147.624V147.758Z" fill="#F8BE84"/>
<path d="M11.836 151.387C11.7015 149.371 11.836 144.665 13.1803 144.531C15.1969 144.396 17.8856 151.791 13.3148 155.017C12.3737 155.689 11.9704 153.404 11.836 151.387Z" fill="#F8BE84"/>
<path d="M5.92397 143.053C7.80603 142.515 9.41922 142.918 9.68809 143.859C9.82252 144.801 8.47819 145.876 6.59613 146.414C4.71407 146.952 3.10088 146.548 2.83201 145.607C2.69758 144.666 4.04191 143.591 5.92397 143.053Z" fill="#F8BE84"/>
<path d="M6.19136 145.204C6.3258 143.86 7.26685 142.918 8.34233 142.918C9.41781 142.918 10.09 144.128 9.95555 145.338C9.82112 146.683 8.88007 147.624 7.80459 147.624C6.7291 147.624 6.05693 146.414 6.19136 145.204Z" fill="#F8BE84"/>
<path d="M4.04146 151.254C4.17589 149.909 5.11691 148.968 6.19236 148.968C7.26781 148.968 7.93996 150.178 7.80553 151.388C7.6711 152.733 6.73008 153.674 5.65463 153.674C4.57918 153.674 3.90703 152.464 4.04146 151.254Z" fill="#F8BE84"/>
<path d="M4.4438 147.623C4.57823 146.278 5.51925 145.337 6.5947 145.337C7.67015 145.337 8.3423 146.547 8.20787 147.757C8.07344 149.102 7.13242 150.043 6.05698 150.043C4.98153 150.043 4.30937 148.833 4.4438 147.623Z" fill="#F8BE84"/>
<path d="M3.63573 146.279C5.51779 145.875 6.99654 146.413 7.26541 147.354C7.39984 148.295 6.05552 149.371 4.30789 149.774C2.56027 150.177 0.94708 149.64 0.678215 148.699C0.543782 147.758 1.88811 146.682 3.63573 146.279Z" fill="#F8BE84"/>
<path d="M3.3693 149.237C5.38579 148.833 7.13342 149.371 7.26785 150.312C7.40228 151.253 5.92352 152.329 3.90703 152.598C1.89054 153.001 0.142914 152.463 0.00848151 151.522C-0.125951 150.581 1.35281 149.506 3.3693 149.237Z" fill="#F8BE84"/>
<path d="M112.661 41.0135L107.149 51.4997L112.661 61.8514L118.039 51.4997L112.661 41.0135Z" fill="#76CBC7"/>
<defs>
<linearGradient id="paint0_linear" x1="154.487" y1="18.8865" x2="155.619" y2="115.075" gradientUnits="userSpaceOnUse">
<stop stop-color="#E89963"/>
<stop offset="1" stop-color="#E59361"/>
</linearGradient>
<linearGradient id="paint1_linear" x1="174.118" y1="114.748" x2="174.258" y2="126.628" gradientUnits="userSpaceOnUse">
<stop stop-color="#DB8456"/>
<stop offset="1" stop-color="#DA7F55"/>
</linearGradient>
</defs>
</svg>
