<svg width="257" height="237" viewBox="0 0 257 237" fill="none" xmlns="http://www.w3.org/2000/svg">
<path d="M209.145 25.0743L177.95 48.8067L169.088 13L146.756 43.3941L131.868 13L117.334 43.3941L93.9379 15.4981L87.5572 48.8067L65.5793 20.9108L63.0979 52.9703L29.7766 32.9851L36.8662 71.7063L1.77241 65.0446L29.7766 92.5242L0 105.015L24.4593 129.58L3.19034 153.729L40.411 152.896L4.25379 188.286L43.6014 177.045L17.3697 222.844L63.0979 185.788L53.5269 227.007L80.8221 200.777L82.24 228.673L109.181 204.108L125.487 237L135.412 205.357L154.2 222.011L158.454 190.368L196.029 222.011L176.178 165.387L229.35 179.126L198.51 146.651L257 145.818L203.828 125.833L249.201 99.6022L210.563 90.026L230.414 58.3829L197.801 65.0446L209.145 25.0743Z" fill="#FF6B00" fill-opacity="0.75"/>
<path d="M209.145 12.1822L177.95 36.1264L169.088 0L146.756 30.6654L131.868 0L117.334 30.6654L93.9379 2.52045L87.5572 36.1264L65.5793 7.98141L63.0979 40.3271L29.7766 20.1636L36.8662 59.2305L1.77241 52.5093L29.7766 80.2342L0 92.8364L24.4593 117.621L3.19034 141.985L40.411 141.145L4.25379 176.851L43.6014 165.509L17.3697 211.717L63.0979 174.331L53.5269 215.918L80.8221 189.454L82.24 217.599L109.181 192.814L125.487 226L135.412 194.074L154.2 210.877L158.454 178.952L196.029 210.877L176.178 153.747L229.35 167.61L198.51 134.844L257 134.004L203.828 113.84L249.201 87.3755L210.563 77.7138L230.414 45.7881L197.801 52.5093L209.145 12.1822Z" fill="#FFFB8F"/>
</svg>
