<svg width="306" height="177" viewBox="0 0 306 177" fill="none" xmlns="http://www.w3.org/2000/svg">
<path d="M190.028 144.047C183.116 149.928 165.413 165.658 154.673 175C153.587 175 152.261 174.542 152.519 173.327C152.767 172.159 167.603 152.645 170.986 146.167C176.006 136.556 179.164 130.433 180.607 124.019C175.798 124.438 28.2756 120.123 20.1967 117.446C10.098 114.099 4.22055 107.149 2.4036 88.166C0.265643 65.8287 6.94007 30.3955 14.9068 20.4044C26.7145 5.59616 41.314 2.00001 52.4162 2C82.3088 1.99998 140.395 4.50969 159.174 4.50969C198.203 4.50969 226.124 4.23083 257.542 4.50969C258.664 4.50969 274.854 3.92303 286.129 8.6925C295.991 12.8641 302.96 24.5872 303.922 35.4625C304.884 46.3378 296.709 83.5648 291.9 95.2767C287.091 106.989 279.321 113.99 273.047 118.587C264.708 124.696 260.399 126.061 208.783 124.806C203.493 130.244 192.533 141.916 190.028 144.047Z" fill="#FFFCC4" stroke="#535353" stroke-width="3" stroke-linejoin="round"/>
</svg>
