<svg width="297" height="183" viewBox="0 0 297 183" fill="none" xmlns="http://www.w3.org/2000/svg">
<path d="M35.4336 129.9C37.0453 135.755 37.5055 139.721 41.1476 150.98C44.6454 161.793 49.499 171.475 53.4549 180.405C53.7956 181.174 54.334 181.283 54.7735 181.283C55.2131 181.283 56.0922 180.405 56.0922 179.088C56.0922 175.281 55.8284 164.507 56.5317 157.129C57.235 149.751 60.0481 140.586 61.3667 136.927C65.6156 137.219 76.2832 138.683 85.1022 138.683C103.877 138.683 139.748 136.086 163.215 134.89L163.875 134.857C186.873 133.686 234.765 131.249 267.074 118.042C295.001 106.627 295.753 80.5824 295.001 64.7836C294 43.7836 287.001 25.2836 254.001 12.7835C223.032 1.05305 202.346 1.37994 129.115 2.53712L129.057 2.53805C65.9887 3.53464 46.2649 8.54915 23.8797 28.6092C3.78641 46.6154 -1.17432 67.2568 3.78641 90.3737C7.47241 107.55 24.8845 124.044 35.4336 129.9Z" fill="#FFFCC4" stroke="#535353" stroke-width="3" stroke-linejoin="round"/>
</svg>
